<svg xmlns="http://www.w3.org/2000/svg" viewBox="0 0 1500 1350" width="1500" height="1350" style="background:#fff">
<defs>
  <marker id="ah-dark" viewBox="0 0 10 10" refX="8" refY="5" markerWidth="6" markerHeight="6" orient="auto-start-reverse">
    <path d="M 0 1.5 L 10 5 L 0 8.5 z" fill="#1e1e1e" />
  </marker>
  <marker id="ah-green" viewBox="0 0 10 10" refX="8" refY="5" markerWidth="6" markerHeight="6" orient="auto-start-reverse">
    <path d="M 0 1.5 L 10 5 L 0 8.5 z" fill="#15803d" />
  </marker>
  <marker id="ah-purple" viewBox="0 0 10 10" refX="8" refY="5" markerWidth="6" markerHeight="6" orient="auto-start-reverse">
    <path d="M 0 1.5 L 10 5 L 0 8.5 z" fill="#7c3aed" />
  </marker>
  <marker id="ah-amber" viewBox="0 0 10 10" refX="8" refY="5" markerWidth="6" markerHeight="6" orient="auto-start-reverse">
    <path d="M 0 1.5 L 10 5 L 0 8.5 z" fill="#f59e0b" />
  </marker>
  <marker id="ah-blue" viewBox="0 0 10 10" refX="8" refY="5" markerWidth="6" markerHeight="6" orient="auto-start-reverse">
    <path d="M 0 1.5 L 10 5 L 0 8.5 z" fill="#4a9eed" />
  </marker>
  <marker id="ah-magenta" viewBox="0 0 10 10" refX="8" refY="5" markerWidth="6" markerHeight="6" orient="auto-start-reverse">
    <path d="M 0 1.5 L 10 5 L 0 8.5 z" fill="#a21caf" />
  </marker>
  <marker id="ah-teal" viewBox="0 0 10 10" refX="8" refY="5" markerWidth="6" markerHeight="6" orient="auto-start-reverse">
    <path d="M 0 1.5 L 10 5 L 0 8.5 z" fill="#0d9488" />
  </marker>
  <marker id="ah-red" viewBox="0 0 10 10" refX="8" refY="5" markerWidth="6" markerHeight="6" orient="auto-start-reverse">
    <path d="M 0 1.5 L 10 5 L 0 8.5 z" fill="#ef4444" />
  </marker>
  <marker id="ah-orange" viewBox="0 0 10 10" refX="8" refY="5" markerWidth="6" markerHeight="6" orient="auto-start-reverse">
    <path d="M 0 1.5 L 10 5 L 0 8.5 z" fill="#b45309" />
  </marker>
  <marker id="ah-navy" viewBox="0 0 10 10" refX="8" refY="5" markerWidth="6" markerHeight="6" orient="auto-start-reverse">
    <path d="M 0 1.5 L 10 5 L 0 8.5 z" fill="#1e40af" />
  </marker>
  <marker id="ah-darkred" viewBox="0 0 10 10" refX="8" refY="5" markerWidth="6" markerHeight="6" orient="auto-start-reverse">
    <path d="M 0 1.5 L 10 5 L 0 8.5 z" fill="#7f1d1d" />
  </marker>
  <marker id="ah-deepviolet" viewBox="0 0 10 10" refX="8" refY="5" markerWidth="6" markerHeight="6" orient="auto-start-reverse">
    <path d="M 0 1.5 L 10 5 L 0 8.5 z" fill="#5b21b6" />
  </marker>
  <marker id="ah-darkteal" viewBox="0 0 10 10" refX="8" refY="5" markerWidth="6" markerHeight="6" orient="auto-start-reverse">
    <path d="M 0 1.5 L 10 5 L 0 8.5 z" fill="#0f766e" />
  </marker>
  <marker id="arrowhead" viewBox="0 0 10 10" refX="8" refY="5" markerWidth="6" markerHeight="6" orient="auto-start-reverse">
    <path d="M 0 1.5 L 10 5 L 0 8.5 z" fill="#1e1e1e" />
  </marker>
</defs>
<text x="480" y="53.0" font-size="28" font-family="system-ui, sans-serif" fill="#1e1e1e" font-weight="700">Preloop — End-to-End Job Lifecycle</text>
<text x="410" y="75.0" font-size="15" font-family="system-ui, sans-serif" fill="#757575" font-weight="500">Sequence flow from workflow submission to completion &amp; live SSE logs (23 steps)</text>
<rect x="60" y="110" width="220" height="70" rx="10" fill="#a5d8ff" stroke="#4a9eed" stroke-width="2"/>
<text x="170.0" y="138.2" text-anchor="middle" font-size="15" font-family="system-ui, sans-serif" fill="#4a9eed" font-weight="600">User / CLI</text>
<text x="170.0" y="157.0" text-anchor="middle" font-size="15" font-family="system-ui, sans-serif" fill="#4a9eed" font-weight="600">local execution client</text>
<rect x="350" y="110" width="220" height="70" rx="10" fill="#d0bfff" stroke="#7c3aed" stroke-width="2"/>
<text x="460.0" y="138.2" text-anchor="middle" font-size="15" font-family="system-ui, sans-serif" fill="#7c3aed" font-weight="600">Parser</text>
<text x="460.0" y="157.0" text-anchor="middle" font-size="15" font-family="system-ui, sans-serif" fill="#7c3aed" font-weight="600">aksh-gha-parser</text>
<rect x="640" y="110" width="220" height="70" rx="10" fill="#fff3bf" stroke="#f59e0b" stroke-width="2"/>
<text x="750.0" y="138.2" text-anchor="middle" font-size="15" font-family="system-ui, sans-serif" fill="#f59e0b" font-weight="600">Server / Queue</text>
<text x="750.0" y="157.0" text-anchor="middle" font-size="15" font-family="system-ui, sans-serif" fill="#f59e0b" font-weight="600">aksh-runner-server</text>
<rect x="930" y="110" width="220" height="70" rx="10" fill="#ffd8a8" stroke="#f59e0b" stroke-width="2"/>
<text x="1040.0" y="138.2" text-anchor="middle" font-size="15" font-family="system-ui, sans-serif" fill="#f59e0b" font-weight="600">Listener</text>
<text x="1040.0" y="157.0" text-anchor="middle" font-size="15" font-family="system-ui, sans-serif" fill="#f59e0b" font-weight="600">aks-runner run</text>
<rect x="1220" y="110" width="220" height="70" rx="10" fill="#eebefa" stroke="#a21caf" stroke-width="2"/>
<text x="1330.0" y="138.2" text-anchor="middle" font-size="15" font-family="system-ui, sans-serif" fill="#a21caf" font-weight="600">Worker / Storage</text>
<text x="1330.0" y="157.0" text-anchor="middle" font-size="15" font-family="system-ui, sans-serif" fill="#a21caf" font-weight="600">aks-runner worker</text>
<path d="M 170.0,185.0 L 170.0,1280.0" stroke="#b0b0b0" stroke-width="1.5" stroke-dasharray="6,4" fill="none"/>
<path d="M 460.0,185.0 L 460.0,1280.0" stroke="#b0b0b0" stroke-width="1.5" stroke-dasharray="6,4" fill="none"/>
<path d="M 750.0,185.0 L 750.0,1280.0" stroke="#b0b0b0" stroke-width="1.5" stroke-dasharray="6,4" fill="none"/>
<path d="M 1040.0,185.0 L 1040.0,1280.0" stroke="#b0b0b0" stroke-width="1.5" stroke-dasharray="6,4" fill="none"/>
<path d="M 1330.0,185.0 L 1330.0,1280.0" stroke="#b0b0b0" stroke-width="1.5" stroke-dasharray="6,4" fill="none"/>
<path d="M 170.0,210.0 L 460.0,210.0" stroke="#4a9eed" stroke-width="2" marker-end="url(#ah-blue)" fill="none"/>
<rect x="215.4" y="199.5" width="199.2" height="19.0" rx="4" fill="#ffffff" fill-opacity="0.9" stroke="#e0e0e0" stroke-width="0.5"/>
<text x="315.0" y="214.6" text-anchor="middle" font-size="13" font-family="system-ui, sans-serif" fill="#4a9eed" font-weight="600">1. preloop run -f wf.yml</text>
<path d="M 460.0,255.0 L 500.0,255.0 L 500.0,280.0 L 460.0,280.0" stroke="#7c3aed" stroke-width="2" marker-end="url(#ah-purple)" fill="none"/>
<rect x="380.9" y="257.0" width="238.2" height="19.0" rx="4" fill="#ffffff" fill-opacity="0.9" stroke="#e0e0e0" stroke-width="0.5"/>
<text x="500.0" y="272.1" text-anchor="middle" font-size="13" font-family="system-ui, sans-serif" fill="#7c3aed" font-weight="600">2. parse_workflow() (yaml.rs)</text>
<path d="M 460.0,300.0 L 500.0,300.0 L 500.0,325.0 L 460.0,325.0" stroke="#7c3aed" stroke-width="2" marker-end="url(#ah-purple)" fill="none"/>
<rect x="380.9" y="302.0" width="238.2" height="19.0" rx="4" fill="#ffffff" fill-opacity="0.9" stroke="#e0e0e0" stroke-width="0.5"/>
<text x="500.0" y="317.1" text-anchor="middle" font-size="13" font-family="system-ui, sans-serif" fill="#7c3aed" font-weight="600">3. trigger match (trigger.rs)</text>
<path d="M 460.0,345.0 L 500.0,345.0 L 500.0,370.0 L 460.0,370.0" stroke="#7c3aed" stroke-width="2" marker-end="url(#ah-purple)" fill="none"/>
<rect x="377.0" y="347.0" width="246.0" height="19.0" rx="4" fill="#ffffff" fill-opacity="0.9" stroke="#e0e0e0" stroke-width="0.5"/>
<text x="500.0" y="362.1" text-anchor="middle" font-size="13" font-family="system-ui, sans-serif" fill="#7c3aed" font-weight="600">4. expand &amp; matrix (expand.rs)</text>
<path d="M 460.0,390.0 L 500.0,390.0 L 500.0,415.0 L 460.0,415.0" stroke="#7c3aed" stroke-width="2" marker-end="url(#ah-purple)" fill="none"/>
<rect x="412.1" y="392.0" width="175.8" height="19.0" rx="4" fill="#ffffff" fill-opacity="0.9" stroke="#e0e0e0" stroke-width="0.5"/>
<text x="500.0" y="407.1" text-anchor="middle" font-size="13" font-family="system-ui, sans-serif" fill="#7c3aed" font-weight="600">5. build DAG (dag.rs)</text>
<path d="M 460.0,435.0 L 500.0,435.0 L 500.0,460.0 L 460.0,460.0" stroke="#7c3aed" stroke-width="2" marker-end="url(#ah-purple)" fill="none"/>
<rect x="400.4" y="437.0" width="199.2" height="19.0" rx="4" fill="#ffffff" fill-opacity="0.9" stroke="#e0e0e0" stroke-width="0.5"/>
<text x="500.0" y="452.1" text-anchor="middle" font-size="13" font-family="system-ui, sans-serif" fill="#7c3aed" font-weight="600">6. ${{ }} eval (eval.rs)</text>
<path d="M 460.0,480.0 L 750.0,480.0" stroke="#15803d" stroke-width="2" marker-end="url(#ah-green)" fill="none"/>
<rect x="493.7" y="469.5" width="222.6" height="19.0" rx="4" fill="#ffffff" fill-opacity="0.9" stroke="#e0e0e0" stroke-width="0.5"/>
<text x="605.0" y="484.6" text-anchor="middle" font-size="13" font-family="system-ui, sans-serif" fill="#15803d" font-weight="600">7. POST /api/v1/runs (DTOs)</text>
<path d="M 750.0,525.0 L 790.0,525.0 L 790.0,550.0 L 750.0,550.0" stroke="#f59e0b" stroke-width="2" marker-end="url(#ah-amber)" fill="none"/>
<rect x="682.6" y="527.0" width="214.8" height="19.0" rx="4" fill="#ffffff" fill-opacity="0.9" stroke="#e0e0e0" stroke-width="0.5"/>
<text x="790.0" y="542.0" text-anchor="middle" font-size="13" font-family="system-ui, sans-serif" fill="#f59e0b" font-weight="600">8. auth &amp; concurrency gate</text>
<path d="M 750.0,570.0 L 790.0,570.0 L 790.0,595.0 L 750.0,595.0" stroke="#f59e0b" stroke-width="2" marker-end="url(#ah-amber)" fill="none"/>
<rect x="694.3" y="572.0" width="191.4" height="19.0" rx="4" fill="#ffffff" fill-opacity="0.9" stroke="#e0e0e0" stroke-width="0.5"/>
<text x="790.0" y="587.0" text-anchor="middle" font-size="13" font-family="system-ui, sans-serif" fill="#f59e0b" font-weight="600">9. RunId, status=Queued</text>
<path d="M 750.0,615.0 L 170.0,615.0" stroke="#15803d" stroke-width="2" marker-end="url(#ah-green)" fill="none"/>
<rect x="383.8" y="604.5" width="152.4" height="19.0" rx="4" fill="#ffffff" fill-opacity="0.9" stroke="#e0e0e0" stroke-width="0.5"/>
<text x="460.0" y="619.5" text-anchor="middle" font-size="13" font-family="system-ui, sans-serif" fill="#15803d" font-weight="600">10. 200 OK + RunId</text>
<path d="M 750.0,660.0 L 1040.0,660.0" stroke="#f59e0b" stroke-width="2" marker-end="url(#ah-amber)" fill="none"/>
<rect x="791.5" y="649.5" width="207.0" height="19.0" rx="4" fill="#ffffff" fill-opacity="0.9" stroke="#e0e0e0" stroke-width="0.5"/>
<text x="895.0" y="664.5" text-anchor="middle" font-size="13" font-family="system-ui, sans-serif" fill="#f59e0b" font-weight="600">11. notify: job available</text>
<path d="M 1040.0,705.0 L 750.0,705.0" stroke="#f59e0b" stroke-width="2" marker-end="url(#ah-amber)" fill="none"/>
<rect x="795.4" y="694.5" width="199.2" height="19.0" rx="4" fill="#ffffff" fill-opacity="0.9" stroke="#e0e0e0" stroke-width="0.5"/>
<text x="895.0" y="709.5" text-anchor="middle" font-size="13" font-family="system-ui, sans-serif" fill="#f59e0b" font-weight="600">12. POST /runner/session</text>
<path d="M 750.0,750.0 L 1040.0,750.0" stroke="#f59e0b" stroke-width="2" marker-end="url(#ah-amber)" fill="none"/>
<rect x="787.6" y="739.5" width="214.8" height="19.0" rx="4" fill="#ffffff" fill-opacity="0.9" stroke="#e0e0e0" stroke-width="0.5"/>
<text x="895.0" y="754.5" text-anchor="middle" font-size="13" font-family="system-ui, sans-serif" fill="#f59e0b" font-weight="600">13. sessionToken &amp; AES key</text>
<path d="M 1040.0,795.0 L 750.0,795.0" stroke="#f59e0b" stroke-width="2" marker-end="url(#ah-amber)" fill="none"/>
<rect x="736.9" y="784.5" width="316.2" height="19.0" rx="4" fill="#ffffff" fill-opacity="0.9" stroke="#e0e0e0" stroke-width="0.5"/>
<text x="895.0" y="799.5" text-anchor="middle" font-size="13" font-family="system-ui, sans-serif" fill="#f59e0b" font-weight="600">14. GET /runner/message (long-poll 60s)</text>
<path d="M 750.0,840.0 L 1040.0,840.0" stroke="#f59e0b" stroke-width="2" marker-end="url(#ah-amber)" fill="none"/>
<rect x="787.6" y="829.5" width="214.8" height="19.0" rx="4" fill="#ffffff" fill-opacity="0.9" stroke="#e0e0e0" stroke-width="0.5"/>
<text x="895.0" y="844.5" text-anchor="middle" font-size="13" font-family="system-ui, sans-serif" fill="#f59e0b" font-weight="600">15. TaskAgentMessage (AES)</text>
<path d="M 1040.0,885.0 L 1330.0,885.0" stroke="#a21caf" stroke-width="2" marker-end="url(#ah-magenta)" fill="none"/>
<rect x="1034.7" y="874.5" width="300.6" height="19.0" rx="4" fill="#ffffff" fill-opacity="0.9" stroke="#e0e0e0" stroke-width="0.5"/>
<text x="1185.0" y="889.5" text-anchor="middle" font-size="13" font-family="system-ui, sans-serif" fill="#a21caf" font-weight="600">16. ack &amp; spawn worker (stdin NDJSON)</text>
<path d="M 1330.0,930.0 L 1370.0,930.0 L 1370.0,955.0 L 1330.0,955.0" stroke="#a21caf" stroke-width="2" marker-end="url(#ah-magenta)" fill="none"/>
<rect x="1254.8" y="932.0" width="230.4" height="19.0" rx="4" fill="#ffffff" fill-opacity="0.9" stroke="#e0e0e0" stroke-width="0.5"/>
<text x="1370.0" y="947.0" text-anchor="middle" font-size="13" font-family="system-ui, sans-serif" fill="#a21caf" font-weight="600">17. download action tarballs</text>
<path d="M 1330.0,975.0 L 1370.0,975.0 L 1370.0,1000.0 L 1330.0,1000.0" stroke="#a21caf" stroke-width="2" marker-end="url(#ah-magenta)" fill="none"/>
<rect x="1293.8" y="977.0" width="152.4" height="19.0" rx="4" fill="#ffffff" fill-opacity="0.9" stroke="#e0e0e0" stroke-width="0.5"/>
<text x="1370.0" y="992.0" text-anchor="middle" font-size="13" font-family="system-ui, sans-serif" fill="#a21caf" font-weight="600">18. cached actions</text>
<path d="M 1330.0,1020.0 L 1370.0,1020.0 L 1370.0,1045.0 L 1330.0,1045.0" stroke="#a21caf" stroke-width="2" marker-end="url(#ah-magenta)" fill="none"/>
<rect x="1262.6" y="1022.0" width="214.8" height="19.0" rx="4" fill="#ffffff" fill-opacity="0.9" stroke="#e0e0e0" stroke-width="0.5"/>
<text x="1370.0" y="1037.0" text-anchor="middle" font-size="13" font-family="system-ui, sans-serif" fill="#a21caf" font-weight="600">19. run steps sequentially</text>
<path d="M 1330.0,1065.0 L 1370.0,1065.0 L 1370.0,1090.0 L 1330.0,1090.0" stroke="#15803d" stroke-width="2" marker-end="url(#ah-green)" fill="none"/>
<rect x="1258.7" y="1067.0" width="222.6" height="19.0" rx="4" fill="#ffffff" fill-opacity="0.9" stroke="#e0e0e0" stroke-width="0.5"/>
<text x="1370.0" y="1082.0" text-anchor="middle" font-size="13" font-family="system-ui, sans-serif" fill="#15803d" font-weight="600">20. live log lines (NDJSON)</text>
<path d="M 1330.0,1110.0 L 170.0,1110.0" stroke="#15803d" stroke-width="2" marker-end="url(#ah-green)" fill="none"/>
<rect x="650.4" y="1099.5" width="199.2" height="19.0" rx="4" fill="#ffffff" fill-opacity="0.9" stroke="#e0e0e0" stroke-width="0.5"/>
<text x="750.0" y="1114.5" text-anchor="middle" font-size="13" font-family="system-ui, sans-serif" fill="#15803d" font-weight="600">21. SSE -&gt; live log tail</text>
<path d="M 1330.0,1155.0 L 750.0,1155.0" stroke="#a21caf" stroke-width="2" marker-end="url(#ah-magenta)" fill="none"/>
<rect x="944.3" y="1144.5" width="191.4" height="19.0" rx="4" fill="#ffffff" fill-opacity="0.9" stroke="#e0e0e0" stroke-width="0.5"/>
<text x="1040.0" y="1159.5" text-anchor="middle" font-size="13" font-family="system-ui, sans-serif" fill="#a21caf" font-weight="600">22. completejob (Twirp)</text>
<path d="M 750.0,1200.0 L 170.0,1200.0" stroke="#15803d" stroke-width="2" marker-end="url(#ah-green)" fill="none"/>
<rect x="344.8" y="1189.5" width="230.4" height="19.0" rx="4" fill="#ffffff" fill-opacity="0.9" stroke="#e0e0e0" stroke-width="0.5"/>
<text x="460.0" y="1204.5" text-anchor="middle" font-size="13" font-family="system-ui, sans-serif" fill="#15803d" font-weight="600">23. final status &amp; artifacts</text>
</svg>